<svg width="24" height="25" viewBox="0 0 24 25" fill="none" xmlns="http://www.w3.org/2000/svg">
<path fill-rule="evenodd" clip-rule="evenodd" d="M0 5.15374C0 4.20697 0.767511 3.43945 1.71429 3.43945H22.2857C23.2325 3.43945 24 4.20697 24 5.15374V18.868C24 19.8148 23.2325 20.5823 22.2857 20.5823H1.71429C0.767513 20.5823 0 19.8148 0 18.868V5.15374ZM10.2857 9.43945C10.2857 10.8596 9.13445 12.0109 7.71429 12.0109C6.29412 12.0109 5.14286 10.8596 5.14286 9.43945C5.14286 8.01929 6.29412 6.86802 7.71429 6.86802C9.13445 6.86802 10.2857 8.01929 10.2857 9.43945ZM2.6514 15.9575C3.90525 14.5857 5.70924 13.7252 7.71423 13.7252C9.71921 13.7252 11.5232 14.5857 12.7771 15.9575C13.2224 16.4448 12.8281 17.1537 12.1679 17.1537H3.2605C2.60035 17.1537 2.20603 16.4448 2.6514 15.9575ZM15.2142 9.4395C15.2142 8.84777 15.6939 8.36808 16.2857 8.36808H19.7143C20.3059 8.36808 20.7857 8.84777 20.7857 9.4395C20.7857 10.0312 20.3059 10.5109 19.7143 10.5109H16.2857C15.6939 10.5109 15.2142 10.0312 15.2142 9.4395ZM16.2857 13.5109C15.6939 13.5109 15.2142 13.9906 15.2142 14.5824C15.2142 15.1741 15.6939 15.6538 16.2857 15.6538H19.7143C20.3059 15.6538 20.7857 15.1741 20.7857 14.5824C20.7857 13.9906 20.3059 13.5109 19.7143 13.5109H16.2857Z" fill="#0E88AD"/>
</svg>
