<svg width="30" height="30" viewBox="0 0 30 30" fill="none" xmlns="http://www.w3.org/2000/svg">
<path d="M11.912 27.6104L12.1087 26.8867L11.912 27.6104ZM3.27487 13.518C3.16908 13.9184 3.40798 14.3288 3.80846 14.4346C4.20893 14.5404 4.61934 14.3015 4.72513 13.901L3.27487 13.518ZM5.00398 22.1173L4.95063 21.3692C4.61004 21.3935 4.32885 21.6448 4.26656 21.9805L5.00398 22.1173ZM3.43299 26.4736C3.35743 26.8809 3.62633 27.2723 4.0336 27.3478C4.44086 27.4234 4.83226 27.1545 4.90782 26.7472L3.43299 26.4736ZM9.38802 22.5566C9.80119 22.5271 10.1122 22.1683 10.0828 21.7551C10.0533 21.342 9.69448 21.0309 9.28132 21.0604L9.38802 22.5566ZM11.7734 0.25C11.3591 0.25 11.0234 0.585786 11.0234 1C11.0234 1.41421 11.3591 1.75 11.7734 1.75V0.25ZM18.0852 1.75C18.4994 1.75 18.8352 1.41421 18.8352 1C18.8352 0.585786 18.4994 0.25 18.0852 0.25V1.75ZM15.3924 11.477C15.3924 11.0628 15.0566 10.727 14.6424 10.727C14.2282 10.727 13.8924 11.0628 13.8924 11.477H15.3924ZM14.6424 17.8796H13.8924C13.8924 18.2938 14.2282 18.6296 14.6424 18.6296V17.8796ZM19.8067 18.6296C20.2209 18.6296 20.5567 18.2938 20.5567 17.8796C20.5567 17.4654 20.2209 17.1296 19.8067 17.1296V18.6296ZM24.8908 19.3932C23.3955 25.0541 17.6676 28.3976 12.1087 26.8867L11.7153 28.3342C18.0946 30.0681 24.6376 26.2251 26.3411 19.7763L24.8908 19.3932ZM4.72513 13.901C6.22048 8.24009 11.9484 4.89662 17.5073 6.40752L17.9007 4.96004C11.5214 3.22614 4.97834 7.06914 3.27487 13.518L4.72513 13.901ZM17.5073 6.40752C23.0703 7.91957 26.3872 13.7284 24.8908 19.3932L26.3411 19.7763C28.0435 13.3313 24.2758 6.69279 17.9007 4.96004L17.5073 6.40752ZM12.1087 26.8867C9.25162 26.1101 6.98847 24.2029 5.66324 21.7597L4.34472 22.4749C5.85496 25.2592 8.44221 27.4446 11.7153 28.3342L12.1087 26.8867ZM4.26656 21.9805L3.43299 26.4736L4.90782 26.7472L5.7414 22.2541L4.26656 21.9805ZM5.05733 22.8654L9.38802 22.5566L9.28132 21.0604L4.95063 21.3692L5.05733 22.8654ZM11.7734 1.75H18.0852V0.25H11.7734V1.75ZM13.8924 11.477V17.8796H15.3924V11.477H13.8924ZM14.6424 18.6296H19.8067V17.1296H14.6424V18.6296Z" fill="#FFA800"/>
</svg>
