<svg width="4" height="17" viewBox="0 0 4 17" fill="none" xmlns="http://www.w3.org/2000/svg">
<path d="M2 4.25024C3.1 4.25024 4 3.35024 4 2.25024C4 1.15024 3.1 0.250244 2 0.250244C0.9 0.250244 0 1.15024 0 2.25024C0 3.35024 0.9 4.25024 2 4.25024ZM2 6.25024C0.9 6.25024 0 7.15024 0 8.25024C0 9.35024 0.9 10.2502 2 10.2502C3.1 10.2502 4 9.35024 4 8.25024C4 7.15024 3.1 6.25024 2 6.25024ZM2 12.2502C0.9 12.2502 0 13.1502 0 14.2502C0 15.3502 0.9 16.2502 2 16.2502C3.1 16.2502 4 15.3502 4 14.2502C4 13.1502 3.1 12.2502 2 12.2502Z" fill="#003F5F"/>
</svg>
